<svg xmlns="http://www.w3.org/2000/svg" viewBox="0 0 100 100"><defs><style>.a{fill:none;stroke:#333;stroke-linecap:round;stroke-miterlimit:10;stroke-width:1.33px;}.b{fill:#f9303a;}.c{fill:#ff931e;}.d{fill:#d34472;}</style></defs><path class="a" d="M64.5,21.7l.3-4.8a.4.4,0,0,1,.1-.3c.1-.1.4,0,.5.1,2,1.4,3,3.7,4.4,5.7a1.4,1.4,0,0,0,.2-.6c.2-1.6.5-3.1.7-4.7A11.3,11.3,0,0,1,73.1,22a5.1,5.1,0,0,0,.7,1.7c.1-1.2.3-2.4.5-3.6s.5-3.6,1.7-4.8l.7-.4h.8A15.1,15.1,0,0,1,81,16.3l.3.2a.7.7,0,0,1-.1.6,2.6,2.6,0,0,1-1.7.7,5.8,5.8,0,0,1-1.8-.4"/><path class="a" d="M78.2,19.9l-2.6,2a4,4,0,0,0-1.4,1.8.3.3,0,0,0,0,.4h.2c2.5,0,5,.2,7.5.4L78.3,27c2.4.4,4.7.9,7,1.5a41.2,41.2,0,0,1-6.1,3.7"/><path class="b" d="M70.7,43.6a3.9,3.9,0,0,0,4.9-3.2c2.3.3,4.8-1.8,4.3-4.3a3.6,3.6,0,0,0,2-5.4,3.4,3.4,0,0,0-4.5-1.2,3.1,3.1,0,0,0-.6-2,3.5,3.5,0,0,0-5.1-.9,3.3,3.3,0,0,0-.6-2,3.5,3.5,0,0,0-5.4-.7,3.4,3.4,0,0,0-.1-3.6c-2.4-3.6-7.6-.7-6.7,2.8-2.3.4-4.4,3-2.7,5.6a.1.1,0,0,0,.1.1,3.6,3.6,0,0,0-1.9,5.4l.5.5a3.4,3.4,0,0,0-1.1,4.9,2.7,2.7,0,0,0,.8,1,3.5,3.5,0,0,0,4.1,5.7,2.4,2.4,0,0,0,.5,1.4c1.9,3,5.8,1.5,6.6-1.1A3.9,3.9,0,0,0,70.7,43.6Z"/><path class="a" d="M75.9,33.2a3.8,3.8,0,0,0,1,2,1.5,1.5,0,0,0,1.3.5"/><path class="a" d="M63.8,37.4a3.5,3.5,0,0,0,1.7,1.5,1.7,1.7,0,0,0,1.4.1"/><path class="a" d="M56.8,40.6a3.5,3.5,0,0,0,1.7,1.5,1.7,1.7,0,0,0,1.4.1"/><path class="a" d="M65.9,29.2a4.3,4.3,0,0,0,2.2.6,1.6,1.6,0,0,0,1.3-.6"/><path class="a" d="M70.3,32.6a3.1,3.1,0,0,1-1.1-1.9,1.7,1.7,0,0,1,.2-1.4"/><path class="a" d="M38.3,74.3,34,72.2l-.2-.2c-.1-.2.1-.3.3-.4,2-1.3,4.5-1.3,6.9-1.9a1.2,1.2,0,0,0-.5-.5l-4-2.4a12.3,12.3,0,0,1,5.4-.3,5.4,5.4,0,0,0,1.8,0l-3.2-1.9c-1.4-.8-3-1.8-3.7-3.4a1.1,1.1,0,0,1-.1-.8,2.1,2.1,0,0,1,.3-.7A16.6,16.6,0,0,1,39.6,57l.3-.2a.9.9,0,0,1,.5.3,2.3,2.3,0,0,1,0,1.8,5.4,5.4,0,0,1-1,1.6"/><path class="a" d="M41.9,61c.2,1,.5,2.1.8,3.1a5.1,5.1,0,0,0,1.2,2l.3.2c.1-.1.1-.1.1-.2,1-2.3,2.1-4.6,3.2-6.8l.9,4.3a62.7,62.7,0,0,1,4.2-5.9,40.7,40.7,0,0,1,1,7"/><path class="c" d="M60.9,77a3.9,3.9,0,0,0-1.1-5.8,3.8,3.8,0,0,0-2.3-5.6c.1-2.2-1.5-4.4-4.2-3.9a3.5,3.5,0,0,0-2.9,3.6,4.1,4.1,0,0,0-2-.2,3.5,3.5,0,0,0-2.8,4.4,3,3,0,0,0-2.1-.2,3.6,3.6,0,0,0-2.7,4.8,3.2,3.2,0,0,0-3.4-1.3c-4.2.7-3.5,6.7.1,7.2a3.7,3.7,0,0,0,4.1,4.7h.2c0,2.1,1.5,4.3,4.2,3.8l.7-.2a3.4,3.4,0,0,0,4.1,2.9,3.3,3.3,0,0,0,1.2-.5,3.5,3.5,0,0,0,4,2.3,3.3,3.3,0,0,0,2.8-3.8,4.3,4.3,0,0,0,1.6,0c3.4-.6,3.6-4.8,1.5-6.5A3.8,3.8,0,0,0,60.9,77Z"/><path class="a" d="M53.3,68.2a3.4,3.4,0,0,0,2.2-.2,1.4,1.4,0,0,0,1-1"/><path class="a" d="M52.6,80.9a3.4,3.4,0,0,0,2-.9,1.8,1.8,0,0,0,.6-1.3"/><path class="a" d="M52.9,88.6a3,3,0,0,0,2-1,1.4,1.4,0,0,0,.6-1.2"/><path class="a" d="M45.8,75.8a3.9,3.9,0,0,0,1.4-1.7,2.2,2.2,0,0,0,0-1.4"/><path class="a" d="M50.6,73.2a3.4,3.4,0,0,1-2.2.2,1.6,1.6,0,0,1-1.2-.7"/><path class="a" d="M21.6,23l-3.4-3.5c0-.1-.1-.1-.1-.2s.2-.3.4-.4c2.4-.5,4.8.4,7.1.6a.9.9,0,0,0-.3-.6l-2.9-3.6a12,12,0,0,1,5.2,1.5,6.1,6.1,0,0,0,1.7.7c-.8-1-1.6-1.9-2.3-2.9s-2.3-2.7-2.4-4.5a1.3,1.3,0,0,1,.2-.8,1.2,1.2,0,0,1,.5-.5,15.4,15.4,0,0,1,3.4-1.7h.4l.3.5a2.1,2.1,0,0,1-.6,1.7,5.3,5.3,0,0,1-1.5,1.1"/><path class="a" d="M29.5,11.7a16.3,16.3,0,0,0-.3,3.1,4.9,4.9,0,0,0,.4,2.4c0,.1.1.2.3.2H30c1.7-1.9,3.5-3.6,5.3-5.3-.2,1.4-.4,2.9-.5,4.3a60.4,60.4,0,0,1,5.8-4.1,33.8,33.8,0,0,1-1.4,6.9"/><path class="d" d="M42,33.1a4,4,0,0,0,.9-5.8,3.8,3.8,0,0,0-.3-6c.8-2,.1-4.7-2.6-5.1a3.4,3.4,0,0,0-4,2.4,3,3,0,0,0-1.8-.8,3.4,3.4,0,0,0-4.1,3.1,3.8,3.8,0,0,0-1.9-.9A3.6,3.6,0,0,0,24,23.6a3.2,3.2,0,0,0-2.8-2.4c-4.2-.7-5.6,5.2-2.3,6.9a3.6,3.6,0,0,0,2.3,5.7h.1c-.7,2,.1,4.6,2.7,5,.3,0,.5.1.7,0A3.6,3.6,0,0,0,27.6,43a5.6,5.6,0,0,0,1.3,0,3.3,3.3,0,0,0,3,3.4,3.4,3.4,0,0,0,4-2.6,3,3,0,0,0,1.4.6c3.5.5,5-3.3,3.6-5.6A4.1,4.1,0,0,0,42,33.1Z"/><path class="a" d="M37.8,22.3a3.9,3.9,0,0,0,2.1.6,2,2,0,0,0,1.3-.6"/><path class="a" d="M32.8,34.1a4.2,4.2,0,0,0,2.2-.3c.4-.2.9-.5,1-1"/><path class="a" d="M30.5,41.4a3.4,3.4,0,0,0,2.2-.3,1.9,1.9,0,0,0,1-1"/><path class="a" d="M28.1,26.9A3.7,3.7,0,0,0,30,25.8a1.8,1.8,0,0,0,.4-1.4"/><path class="a" d="M33.6,26.1a5.1,5.1,0,0,1-2.2-.5,2.3,2.3,0,0,1-.9-1.1"/></svg>