<svg xmlns="http://www.w3.org/2000/svg" viewBox="0 0 100 100"><defs><style>.a{fill:#d34472;}.b{fill:none;stroke:#333;stroke-linecap:round;stroke-miterlimit:10;stroke-width:1.33px;}</style></defs><path class="a" d="M73.5,74.8c.1-6.8-4.2-12.4-8.7-17-2.5-2.6-5.5-4.6-8-7.3A50.7,50.7,0,0,1,50,42.7c-2.1-3.2-2.6-6.3-3.2-10a13.9,13.9,0,0,0-6.1-9.3,7.4,7.4,0,0,0-5.5-1,3.5,3.5,0,0,0-3.1,1.2c-5,5.7-7.8,13.2-9.3,20.5a55.6,55.6,0,0,0,0,21.5C25.2,78,33.2,88.5,45.5,92.3c6.2,1.9,13.4,2.1,19.2-1.3A18.6,18.6,0,0,0,73.5,74.8Z"/><path class="b" d="M33,21a8.8,8.8,0,0,0-6.6,3.6,22.5,22.5,0,0,0-3.3,7,39.7,39.7,0,0,1-2.8,7.2,13.9,13.9,0,0,0,9.3-4.4,11.4,11.4,0,0,0,5.9,10.1c1-3,1.9-6,2.8-9a11.6,11.6,0,0,0,7,4.4,19.7,19.7,0,0,1-3-7.5,40.3,40.3,0,0,0,7.4,2.5,3.9,3.9,0,0,0,2.6,0,14.8,14.8,0,0,1-2.6-3,13.6,13.6,0,0,1-1.1-2.5,17,17,0,0,0-9-8.5,8.1,8.1,0,0,0-4-.7,24.7,24.7,0,0,0,1.7-7,7.6,7.6,0,0,0-2.9-6.3c-1-.6-2.6-.9-3.4,0a2.9,2.9,0,0,0-.6,2.4c.3,3.7,2.8,6.9,2.9,10.5"/><path class="b" d="M64.9,77.8a6.9,6.9,0,0,0,1-5.9"/><path class="b" d="M66,83.3a15.4,15.4,0,0,0,2.4-13.9"/></svg>