<svg xmlns="http://www.w3.org/2000/svg" viewBox="0 0 100 100"><defs><style>.a{fill:none;stroke:#333;stroke-linecap:round;stroke-miterlimit:10;stroke-width:1.33px;}.b{fill:#7dc265;}</style></defs><path class="a" d="M39.9,56.7a56.1,56.1,0,0,1,5,9,8.5,8.5,0,0,1,.9,2.4,19.7,19.7,0,0,1,.4,3.4c.1,4.2.2,8.3-.1,12.5a2,2,0,0,0,.2,1.1,1.2,1.2,0,0,0,.5.5,8.3,8.3,0,0,0,4.1,1l5.7.2a5.6,5.6,0,0,0,2.2-.3A1.8,1.8,0,0,0,60.1,85a2.1,2.1,0,0,0-.7-1.8,7.1,7.1,0,0,0-1.8-.8,14.5,14.5,0,0,0-8,.1"/><path class="a" d="M67.4,54.6a24,24,0,0,0-5.5,11.3,48.9,48.9,0,0,0-.5,5.5l-.7,10.1"/><path class="a" d="M60.9,55.3a29.9,29.9,0,0,0-1,5.2c-.2,1.7-.3,3.6-1.4,4.9a1.3,1.3,0,0,1-.6.4c-.5.1-.8-.5-1-1.1a9.7,9.7,0,0,1-.2-2.4c-.2-3.2-.2-6.4-.1-9.5"/><path class="a" d="M51.3,52.5l.6,11.2a6.8,6.8,0,0,1-.2,2,1.8,1.8,0,0,1-1.3,1.2c-1,.1-1.7-.9-2.2-1.7a83.9,83.9,0,0,1-4.5-9.6"/><path class="b" d="M83.1,30.6c-2.1-4.9-7.9-8.4-13.2-7a10,10,0,0,0-.8-3.3,6.3,6.3,0,0,0-3.7-2.7,5.3,5.3,0,0,0-4.6.8,8.2,8.2,0,0,0-2.4-3.7,7.8,7.8,0,0,0-6.1-1.4,9.6,9.6,0,0,0-5.8,2.5A5.8,5.8,0,0,0,44.9,19a4.7,4.7,0,0,0-4.8-1c-2.2.8-3.3,3.3-3.4,5.7-2.6-.8-5.2-1.5-7.9-.2a10.9,10.9,0,0,0-5.6,7.6A9.4,9.4,0,0,0,25,39.5c1.6,2,3.7,2.6,5.9,3a6.3,6.3,0,0,0-1.5,5.4,4.9,4.9,0,0,0,5.1,4c-.4,2.3-.6,4.6,1.4,6.5s4.9,2.3,7.6,2.4,6-.4,8.4-2.4a11.2,11.2,0,0,0,1.8-2A8.3,8.3,0,0,0,54.9,58c2,2,5,2.4,7.8,2.2s6.7-2.9,7.3-6.3a6.5,6.5,0,0,0,6.5-1.3C79.6,49.9,80,46,78,43.1c2-.8,4-1.6,5.3-3.6S84.3,33.4,83.1,30.6Z"/><path class="a" d="M64.3,57.1a5.8,5.8,0,0,0,3.9-3.7"/><path class="a" d="M77.7,40.6A5.9,5.9,0,0,0,81.6,37"/><path class="a" d="M34.7,27.4a5.8,5.8,0,0,0-3.2.4,3,3,0,0,0-1.4,1.1,5.9,5.9,0,0,0-1.8,4.5"/><path class="a" d="M30.1,25.5a5.8,5.8,0,0,0-3.6,4"/></svg>