<svg xmlns="http://www.w3.org/2000/svg" viewBox="0 0 100 100"><defs><style>.a{fill:#f53737;}.b{fill:none;stroke:#333;stroke-linecap:round;stroke-miterlimit:10;stroke-width:1.33px;}</style></defs><path class="a" d="M80.9,78.2c-4.7-4.1-10.5-6.7-16.1-9.3l-8.6-4.1c-2.6-1.2-5.5-2.4-7.2-4.8-3.1-4.7-2.7-11.7-3.3-17.1S45.4,32,41.3,28s-8.4-5.4-12.6-2.9a7.9,7.9,0,0,0-2.2,1.8c-3.1,2.4-4.7,6.7-6,10.6-2.8,8.7.4,17.3,5.3,24.5S39.4,74.5,47.9,78.3a53.6,53.6,0,0,0,13.6,4.2c4.9.8,9.6,1.5,14.2,3.3S85.1,81.8,80.9,78.2Z"/><path class="b" d="M30.6,26.9a12.7,12.7,0,0,0-4.7,4.5l.3-2.7a.7.7,0,0,0-.1-.5c-.1-.3-.5-.3-.7-.2a8.4,8.4,0,0,0-4,1.7,6.1,6.1,0,0,1,1.7-3.4,5.8,5.8,0,0,1,3.5-1.5h.3l.2-.2c.3-.7.5-1.3.8-1.9A9.8,9.8,0,0,1,34.1,17l-.7,1.5a17.8,17.8,0,0,0-1.7,4.9,9,9,0,0,1,5.6-.7,17.4,17.4,0,0,1,5.4,1.9c.1.1.3.2.3.4s-.3.3-.6.3l-4.7.6a13,13,0,0,0-4,.9"/><path class="b" d="M27.1,24.1a9,9,0,0,0-6.4-7.5c-.1,0-.2-.1-.3,0s-.3.2-.4.4a11.3,11.3,0,0,0-.8,2.4c0,.5-.1.9.2,1.3a1.6,1.6,0,0,0,.9.5,39.3,39.3,0,0,1,6.6,3"/><path class="b" d="M24.3,39.9a22,22,0,0,0,6,19.5"/></svg>