<svg xmlns="http://www.w3.org/2000/svg" viewBox="0 0 100 100"><defs><style>.a{fill:#d34472;}.b{fill:none;stroke:#333;stroke-linecap:round;stroke-miterlimit:10;stroke-width:1.33px;}</style></defs><path class="a" d="M70.5,23.1C64,18.8,57.2,17.6,50.3,22c-3.6,2.3-6.9,6.3-10.9,7.8-2.1.7-4-.1-6.1.1a10.7,10.7,0,0,0-4.8,2,1.4,1.4,0,0,0-.5,1,1.1,1.1,0,0,0-.1,1c1.4,4-.9,7.5-3.5,10.3a30.1,30.1,0,0,0-5.8,8.7c-2.5,5.8-3.8,12.1-1.8,18.2S22.8,82.3,28,85s13.4,3,19.6,1.8S60.4,80.3,66,76.2,77.7,67,80.5,59.8s4.9-12.9,3-19.3A31.1,31.1,0,0,0,70.5,23.1Z"/><path class="b" d="M35.6,27.2c0-3.4-.1-7.2-2.3-9.8a1,1,0,0,0-.5-.4c-.5,0-.8.6-.8,1.1s-.3,1.8-.5,2.7A5.7,5.7,0,0,0,29,20a2,2,0,0,0-2.1,1.1,3,3,0,0,0,.4,2.6c.3.5.6,1.2.1,1.6a1,1,0,0,1-.7.2h-4a4.3,4.3,0,0,0,.7,2.5l-2.4.2a2.2,2.2,0,0,0-1.4.3,1,1,0,0,0-.5,1.1,1.1,1.1,0,0,0,.7.6c1.7,1,3.7,1.3,5.3,2.2a8.7,8.7,0,0,1,4.4,7.5c0,4.7-3.9,8.5-5.9,12.8s-2.1,8.4-2.1,12.8a17.3,17.3,0,0,0,.7,6,18.4,18.4,0,0,0,3,4.8A28.8,28.8,0,0,0,32,83a10.4,10.4,0,0,0,9.2,1.2"/><path class="b" d="M56.7,29.2a13.6,13.6,0,0,1,8.2,2.6,22.1,22.1,0,0,1,6,6.2,19.3,19.3,0,0,1,2.6,4.9,24.2,24.2,0,0,1,1,4.5,34.9,34.9,0,0,1-1.8,15.7,10,10,0,0,0-.9,3.5,3.1,3.1,0,0,0,1.4,3.1,13.1,13.1,0,0,0,2.1.8c.6.4,1.1,1.3.6,1.9s-1.8.2-2.4.9.9,1.1.9,1.8-1.1,1-1.8.8-1.8-.2-2.2.5.5,1.9,0,2.6a3.5,3.5,0,0,1-1.3-.8l-2.1,3a.9.9,0,0,1-.7.5l-.4-.4a5,5,0,0,1-.8-2.8"/><path class="b" d="M45.6,30a19.8,19.8,0,0,1,14.9-5,31.3,31.3,0,0,1,5.3,1.2,14.7,14.7,0,0,1,3.4,1.5,11.8,11.8,0,0,1,2.6,2.4,45.2,45.2,0,0,1,4,4.9c2.1,2.9,4.1,6.3,3.6,9.8"/><path class="b" d="M31.8,46.4c-1,4-1.9,8.1-2.6,12.2a19.5,19.5,0,0,0-.4,4.8,12.1,12.1,0,0,0,1,3.6A25,25,0,0,0,41,79.8a23.1,23.1,0,0,0,16.9,1.9"/><path class="b" d="M38.8,45.8a21.8,21.8,0,0,0-1.1,4.4,24.6,24.6,0,0,0,5.9,20.2c5,5.3,12.7,8.1,19.8,6.5"/><path class="b" d="M36.2,36.6c5.4.1,11.1.2,15.9,2.7s6.6,5.2,9.1,8.6,4.5,6.9,5,11a57.7,57.7,0,0,1,.1,7.2c.1,2.4.5,4.9,2.1,6.8"/></svg>