<svg xmlns="http://www.w3.org/2000/svg" viewBox="0 0 100 100"><defs><style>.a{fill:none;stroke:#333;stroke-linecap:round;stroke-miterlimit:10;stroke-width:1.33px;}.b{fill:#f9303a;}</style></defs><path class="a" d="M34.6,66a61.8,61.8,0,0,0,5.8-44A89.8,89.8,0,0,1,57.7,40.6c3.9,5.7,7.3,12.1,7,19"/><path class="a" d="M40.7,22.6a31.3,31.3,0,0,1-10.9,4.8,4.7,4.7,0,0,1-.5-2.6,1.3,1.3,0,0,1,.1-.6,1.3,1.3,0,0,1,.9-.2c4.1.1,7.8-2.5,11.6-4.2a38.9,38.9,0,0,0,4.2-1.9A6.7,6.7,0,0,0,49,14.4"/><path class="b" d="M50.3,62.7c-3.1-3.6-8.8-3.8-13-1.9-7.5-6.7-21.9-6.1-23.3,5.6-1.7,13.7,9.3,21.8,22,21.9,6.2,0,11.7-2.9,14.6-8.5S54.2,67,50.3,62.7Z"/><path class="b" d="M76.3,46.8c-4.5-1.2-9.4,1.7-11.8,5.6C54.5,51,42.9,59.5,48.2,70c6.2,12.3,19.7,13,30.4,6,5.2-3.4,8.2-8.8,7.5-15.1S82.1,48.3,76.3,46.8Z"/><path class="a" d="M51.2,71.7a11.3,11.3,0,0,0-5.8-8.5"/><path class="a" d="M75.6,74.7a19.3,19.3,0,0,0,7.9-15.9"/></svg>