<?xml version="1.0" encoding="utf-8"?>
<!-- Generator: Adobe Illustrator 25.4.1, SVG Export Plug-In . SVG Version: 6.00 Build 0)  -->
<svg version="1.1" id="Layer_1" xmlns="http://www.w3.org/2000/svg" xmlns:xlink="http://www.w3.org/1999/xlink" x="0px" y="0px"
	 viewBox="0 0 132.09 116.86" style="enable-background:new 0 0 132.09 116.86;" xml:space="preserve">
<style type="text/css">
	.st0{fill:#FFB143;}
	.st1{opacity:0.5;fill:#DD7A1E;}
	.st2{fill:#3D3D3D;}
	.st3{fill:#FFFFFF;}
</style>
<g>
	<g>
		<path class="st0" d="M8.97,48.88l4.49,62.88c0.2,2.87,2.59,5.1,5.47,5.1h94.22c2.88,0,5.27-2.22,5.47-5.1l4.49-62.88H8.97z
			 M25.65,108.27h-4.82l-2.88-43.85h5.13L25.65,108.27z M37.88,108.27h-4.82l-2.1-43.85h5.13L37.88,108.27z M50.11,108.27h-4.82
			l-1.32-43.85h5.13L50.11,108.27z M62.34,108.27h-4.82l-0.54-43.85h5.13L62.34,108.27z M74.57,108.27h-4.82l0.24-43.85h5.13
			L74.57,108.27z M86.8,108.27h-4.82L83,64.42h5.13L86.8,108.27z M99.03,108.27h-4.82l1.8-43.85h5.13L99.03,108.27z M111.27,108.27
			h-4.82l2.58-43.85h5.13L111.27,108.27z"/>
		<polygon class="st1" points="122.36,59.51 123.11,48.88 8.97,48.88 9.73,59.51 		"/>
		<path class="st0" d="M127.81,53.57H4.28c-1.31,0-2.37-1.06-2.37-2.37v-5.29c0-1.31,1.06-2.37,2.37-2.37h123.53
			c1.31,0,2.37,1.06,2.37,2.37v5.29C130.18,52.51,129.12,53.57,127.81,53.57z"/>
	</g>
	<g>
		<g>
			<path class="st2" d="M39.98,48.14c0.35,2.04-1.02,3.97-3.05,4.32c-2.04,0.35-3.97-1.02-4.32-3.05c-0.35-2.04,1.02-3.97,3.05-4.32
				C37.69,44.74,39.63,46.1,39.98,48.14z"/>
			<path class="st3" d="M37.61,50.09l0.04-0.03c1.22-0.9,1.48-2.62,0.58-3.84L5.01,1.12C4.11-0.1,2.39-0.36,1.16,0.54L1.12,0.57
				c-1.22,0.9-1.48,2.62-0.58,3.84L33.77,49.5C34.67,50.73,36.39,50.99,37.61,50.09z"/>
		</g>
		<g>
			<path class="st2" d="M92.11,48.14c-0.35,2.04,1.02,3.97,3.05,4.32c2.04,0.35,3.97-1.02,4.32-3.05c0.35-2.04-1.02-3.97-3.05-4.32
				C94.39,44.74,92.46,46.1,92.11,48.14z"/>
			<path class="st3" d="M94.48,50.09l-0.04-0.03c-1.22-0.9-1.48-2.62-0.58-3.84l33.23-45.09c0.9-1.22,2.62-1.48,3.84-0.58l0.04,0.03
				c1.22,0.9,1.48,2.62,0.58,3.84L98.32,49.5C97.42,50.73,95.7,50.99,94.48,50.09z"/>
		</g>
	</g>
</g>
</svg>
