<svg xmlns="http://www.w3.org/2000/svg" viewBox="0 0 100 100"><defs><style>.a{fill:#ff931e;}.b{fill:none;stroke:#333;stroke-linecap:round;stroke-miterlimit:10;stroke-width:1.33px;}</style></defs><path class="a" d="M41.1,21.3a22.2,22.2,0,0,0-15.9-3.1,16.2,16.2,0,0,0-9.7,6.5,18.3,18.3,0,0,0-4.6,10.2c-.4,4.4.8,8.9,5.3,10.6a10.7,10.7,0,0,0,11.4-2.6c1.8-1.8,2.5-2.3,4.8-.6a49.9,49.9,0,0,0,5.1,4,9.6,9.6,0,0,0,11.8-2.1C56.2,36.1,48.4,25.6,41.1,21.3Z"/><path class="b" d="M23.5,41.8a4,4,0,0,1-2.8-.7,2.8,2.8,0,0,1-.8-2.7,3.5,3.5,0,0,1,3-2.2,4.6,4.6,0,0,1,2,.1,4.3,4.3,0,0,1,2.8,2.9,8.9,8.9,0,0,1,0,4.3,15.9,15.9,0,0,1-1.6,4.1c-.8,1.2-1.6,2.3-2.3,3.5a12.1,12.1,0,0,0-1.4,6.7,4.5,4.5,0,0,0,.4,2A4.9,4.9,0,0,0,25.3,62a9.7,9.7,0,0,0,3.4.5,42.2,42.2,0,0,0,4.9-.4,15.1,15.1,0,0,0,4.1-1.3,4.6,4.6,0,0,0,2.5-3.3c.2-2-1.2-3.7-2.4-5.3A22.4,22.4,0,0,1,33,39.9a7.8,7.8,0,0,1,.8-4,3.4,3.4,0,0,1,3.5-1.8,3.8,3.8,0,0,1,1.7.8,4.4,4.4,0,0,1,1.3,3.7A4.3,4.3,0,0,1,38.2,42"/><path class="b" d="M43.7,26.1a9.5,9.5,0,0,0-8-3.4"/><path class="a" d="M76,62a16.8,16.8,0,0,0-10.7-6.4,12.8,12.8,0,0,0-8.8,2.1,15.2,15.2,0,0,0-6.1,6.2C49,67,48.7,70.6,51.5,73a8.5,8.5,0,0,0,9,1.2c1.8-.9,2.4-1,3.6.8s1.5,3,2.7,4.2a7.4,7.4,0,0,0,9.1,1.7C83.1,76.8,80.2,67.1,76,62Z"/><path class="b" d="M57.8,72.2A2.5,2.5,0,0,1,56,71a2,2,0,0,1,.1-2.2,2.6,2.6,0,0,1,2.7-.7,3,3,0,0,1,1.5.5,3.2,3.2,0,0,1,1.2,2.9,5.8,5.8,0,0,1-1.1,3.1,9.2,9.2,0,0,1-2.3,2.5l-2.6,2a10.1,10.1,0,0,0-2.8,4.5,7.8,7.8,0,0,0-.2,1.6,3.4,3.4,0,0,0,1.3,2.2A6.1,6.1,0,0,0,56,88.7l3.7,1a9.8,9.8,0,0,0,3.4.2,3.7,3.7,0,0,0,2.7-1.8c.7-1.4.1-3-.4-4.5a17.7,17.7,0,0,1-.2-10.2,5.9,5.9,0,0,1,1.7-2.7,2.8,2.8,0,0,1,3-.4,3.6,3.6,0,0,1,1,1.1,3.9,3.9,0,0,1,0,3,3.5,3.5,0,0,1-2.5,1.9"/><path class="b" d="M76.7,66.2a7.4,7.4,0,0,0-5-4.6"/><path class="a" d="M72.8,18.8a14.2,14.2,0,0,0-10,2.4,10.7,10.7,0,0,0-3.9,6.4,11.8,11.8,0,0,0,.1,7.2c.9,2.7,2.8,4.9,5.9,4.7a6.9,6.9,0,0,0,6-4.6c.5-1.5.8-2,2.5-1.6a30.1,30.1,0,0,0,4.1.9,6.2,6.2,0,0,0,6.3-4.4C85.6,23.3,78.2,19.3,72.8,18.8Z"/><path class="b" d="M68.2,35.4a2.3,2.3,0,0,1-1.8.3,1.7,1.7,0,0,1-1.3-1.3,2.5,2.5,0,0,1,1.2-2.1,3.3,3.3,0,0,1,1.2-.5,2.8,2.8,0,0,1,2.4,1,5,5,0,0,1,1.2,2.4,8.8,8.8,0,0,1,.1,2.8c-.1.9-.3,1.8-.4,2.7a8,8,0,0,0,1,4.3,3.9,3.9,0,0,0,.8,1,3.1,3.1,0,0,0,2.1.6,4.7,4.7,0,0,0,2-.6,15.6,15.6,0,0,0,2.8-1.6,6.8,6.8,0,0,0,2-1.8,2.7,2.7,0,0,0,.6-2.6c-.4-1.2-1.7-1.8-2.9-2.4a14.2,14.2,0,0,1-6-5.9,4.4,4.4,0,0,1-.6-2.5,2,2,0,0,1,1.5-2h1.2A3.2,3.2,0,0,1,77.1,29a2.8,2.8,0,0,1-.4,2.5"/><path class="b" d="M75.6,20.8a5.9,5.9,0,0,0-5.5.3"/></svg>