<svg xmlns="http://www.w3.org/2000/svg" viewBox="0 0 100 100"><defs><style>.a{fill:none;stroke:#333;stroke-linecap:round;stroke-miterlimit:10;stroke-width:1.33px;}.b{fill:#f9303a;}</style></defs><path class="a" d="M49.8,35.8a15.5,15.5,0,0,0-12.2-4.7A65.7,65.7,0,0,0,47.7,42.7"/><path class="a" d="M69.7,55.3a8.4,8.4,0,0,1,3.2,3.5,35.2,35.2,0,0,1,1.3,4.3,21.5,21.5,0,0,0,1.9,5,9,9,0,0,0,3.8,3.7,9.1,9.1,0,0,1-6.6-.4c-4.9-2.3-8.4-7.1-11.8-11.4"/><path class="b" d="M61.2,78a15.9,15.9,0,0,0,1.3-2.2c2.3-6.7,3.3-15.5-1-22.2-7.4-10.9-21.9-18-34.2-9.7a29.8,29.8,0,0,0-3.7,3.4c-2.8,4-3.4,9.2-3.1,14.1a20.5,20.5,0,0,1-.1,4.3,23.1,23.1,0,0,1-.8,4.3c-.8,3.1-2.1,5.9-1.9,9a6.8,6.8,0,0,0,.3,1.9c2.1,11,14.6,3.6,22,4.8l2.7.2,5.5.9C50.1,87.1,57.3,85.3,61.2,78Z"/><path class="a" d="M56.8,50.8a106.9,106.9,0,0,1-6.5-13.7,25.9,25.9,0,0,1-1.6-5.9,22.1,22.1,0,0,1,4.5-15.6,32,32,0,0,0,2.6,6c1.3,2.5,2.9,4.9,4.3,7.4a20,20,0,0,1,2.7,8c.2,3.8-1.2,7.6-2.7,11.1a5.7,5.7,0,0,1-1.3,2.1"/><path class="a" d="M59.7,48.8c1.1-1.7,3.7-2.9,5.4-4a20.6,20.6,0,0,1,2.6-1.2,10.9,10.9,0,0,1,2.6-.3c4,.2,7.7,1.7,11.4,3s11.6,1.4,11.6,1.4L86,52.1c-3.7,2.1-7.7,3.8-12,3.7a23.4,23.4,0,0,1-5.4-.8l-7-1.8"/><path class="a" d="M41.8,48.2a8.6,8.6,0,0,0-3.2.1,3.4,3.4,0,0,0-2.2,2.2,3.1,3.1,0,0,0,.1,1,1.9,1.9,0,0,0,1.6.8,4.3,4.3,0,0,0,1.8-.6"/><path class="a" d="M51.2,56.6a4.7,4.7,0,0,0-4,2.8,3,3,0,0,0-.2,1.3,1.4,1.4,0,0,0,.7,1.2,2,2,0,0,0,1.5-.1,5.2,5.2,0,0,0,1-1.1"/><path class="a" d="M58.3,65.5c-1.4.8-3,1.7-3.5,3.2a4.2,4.2,0,0,0,.2,2.9,1.7,1.7,0,0,0,1.3,1.3,1.5,1.5,0,0,0,1.5-.9,3.6,3.6,0,0,0,.3-1.8c-.1-.3-.1-.7-.4-.8"/><path class="a" d="M37,58.9a5.9,5.9,0,0,0-5.8,1.4,2.9,2.9,0,0,0-1.1,1.9,1.7,1.7,0,0,0,1,1.8,2.9,2.9,0,0,0,1.3-.1,1.3,1.3,0,0,0,.7-.5.7.7,0,0,0,0-.9"/><path class="a" d="M46.3,69.1a8.1,8.1,0,0,0-6.8,2.8,3.2,3.2,0,0,0-1,1.8,1.8,1.8,0,0,0,.8,1.8,1.6,1.6,0,0,0,1.5.1A2.3,2.3,0,0,0,42,75a1.3,1.3,0,0,0,.5-1.1.7.7,0,0,0-.8-.7"/><path class="a" d="M31.3,71.1a6.7,6.7,0,0,0-3.4,1,3.2,3.2,0,0,0-1.5,3.2,1.4,1.4,0,0,0,.2.6,1.1,1.1,0,0,0,.8.3,1.7,1.7,0,0,0,1.4,0,.8.8,0,0,0,.5-1.2"/></svg>