<svg xmlns="http://www.w3.org/2000/svg" viewBox="0 0 100 100"><defs><style>.a{fill:#ff931e;}.b{fill:none;stroke:#333;stroke-linecap:round;stroke-miterlimit:10;stroke-width:1.33px;}</style></defs><path class="a" d="M85.2,53.8a3.5,3.5,0,0,0,1.4-.6c1.8-1,4.2-3,4.5-5.1s-1.9-4-4.1-4.5-2.8-.4-4.2-.7l-.6-.8A22.9,22.9,0,0,0,73,30.4c-7.4-4.8-15.2-8.5-24.1-8.3a37.2,37.2,0,0,0-24.1,9.2,25.8,25.8,0,0,0-8.7,18l-2,1.2c-1.5,1-2.9,2.6-2.8,4.6s1.5,2.8,2.9,3.6,2.9,1.7,4.5,2.3c0,.1.1.1.2.1A36.1,36.1,0,0,0,32.4,75c4,2.3,8.9,4.3,13.6,4.1s8,0,11.9-.8a57.1,57.1,0,0,0,11.4-4,26.7,26.7,0,0,0,9-6.5c3.3-3.9,6.1-7.9,6.8-13A3.8,3.8,0,0,0,85.2,53.8Z"/><path class="b" d="M81.7,54.3a26.6,26.6,0,0,1-11,13.1c-4.9,3.2-10.4,5.1-16.1,6.6a9.8,9.8,0,0,1-5.1.5"/><path class="b" d="M59.6,68.8a15.6,15.6,0,0,1-6.1.9"/><path class="b" d="M49,71.5h-.2"/><path class="b" d="M37.2,27.4A25.2,25.2,0,0,0,22.8,41.8"/><path class="b" d="M30,38.2a30.8,30.8,0,0,0-3,4.1,3.8,3.8,0,0,0-.9,2.5"/></svg>