<svg xmlns="http://www.w3.org/2000/svg" viewBox="0 0 100 100"><defs><style>.a{fill:#f9303a;}.b{fill:none;stroke:#333;stroke-linecap:round;stroke-miterlimit:10;stroke-width:1.33px;}</style></defs><path class="a" d="M79.2,52.4c.3-8-6.3-13.8-13.8-15.6a22.8,22.8,0,0,0-3.5-.2,13.6,13.6,0,0,0-2.9.3.1.1,0,0,0-.1-.1c-2-3.3-9.7-7.5-13.4-8.3-7.5-1.6-14.2,1.6-18.4,7.8s-6.4,12.5-6.3,19.3,3.6,15.5,8.6,21.5a5.1,5.1,0,0,0,4.5,2.3h1.2a8.7,8.7,0,0,0,.5,1.9c1.2,3.2,4.5,2.1,7.1,1.3a5.2,5.2,0,0,0,.9,2,6.5,6.5,0,0,0,3.7,1.8,19.2,19.2,0,0,0,9.8-.4C63.7,84,69,78.7,72.6,73a32.4,32.4,0,0,0,1.7-3.2c2.2-4.5,4.1-9,4.8-13.8A21.7,21.7,0,0,0,79.2,52.4Z"/><path class="b" d="M58.9,37.9a20.1,20.1,0,0,0,9.3-10,5.9,5.9,0,0,0,.5-2.3,4.7,4.7,0,0,0-2.8-3.9,3,3,0,0,0-1.6-.3,1.3,1.3,0,0,0-1,1.1,1.6,1.6,0,0,0,.7.9,9.4,9.4,0,0,0,2.6,1.4"/><path class="b" d="M62.8,24.2c.8,3-.3,6.2-1.5,9.1a5.3,5.3,0,0,1-1.9,2.9"/><path class="b" d="M59.4,33.8c-.1-2.8-.1-5.6-.2-8.4s-1.2-4-2.2-5.8-4.1-4-6.7-5.3l-5-2.3c1,4.3,2.2,8.7,4.6,12.4a33.7,33.7,0,0,0,2.8,3.8l4.5,5.6c-.2-1.6-.4-3.3-.5-5s-.3-2.1-.6-3.1a10,10,0,0,0-1.5-2.9,18.1,18.1,0,0,0-4.3-5.2"/></svg>