<svg xmlns="http://www.w3.org/2000/svg" viewBox="0 0 100 100"><defs><style>.a{fill:#7dc265;}.b{fill:none;stroke:#333;stroke-linecap:round;stroke-linejoin:round;stroke-width:1.33px;}</style></defs><path class="a" d="M54.8,13.9c-3.5,2.2-5.2,6-6.2,9.9-.2.7-.3,1.4-.5,2.1s-.4,1.4-.3,1.3l-1.6,3.6a72.8,72.8,0,0,0-3.7,9.8c-.4,1.6-.9,3.1-1.4,4.6a1.1,1.1,0,0,1-.2.6c-.4,1.1-.9,2.1-1.4,3.2l-2.7,4.9-1.1,1.9-.9,1.5-.2.3a73.6,73.6,0,0,1-7.2,7.6A18.6,18.6,0,0,0,21.6,75a14.9,14.9,0,0,0-.2,2.1v1.2a12.7,12.7,0,0,0,6.8,10.9c7.2,3.7,15.6-2.4,21-6.8S58.8,71.3,62,64.7c1.3-2.8,2.5-5.6,3.6-8.5s1.3-3,1.9-4.6c-.6,1.5,1.6-4,1-2.6a7.7,7.7,0,0,1,.7-1.6,35.8,35.8,0,0,0,3.4-20.1,26.3,26.3,0,0,0-3.2-9.8A10.4,10.4,0,0,0,54.8,13.9Z"/><path class="b" d="M59,15.2a7.5,7.5,0,0,0,1.7,1c-.6-.4-1.3,0-1.9.4A4.6,4.6,0,0,0,60.3,15a1,1,0,0,1,.6-.8l-.5.7a.6.6,0,0,0-.1.4h.4l2-.3-2.2.3h-.2c-.1.1,0,.2,0,.3l.9,1.8a10.4,10.4,0,0,0-1-1.8,2.9,2.9,0,0,0-1.8-1.1l1.6.6"/><path class="b" d="M56,19.6a2.1,2.1,0,0,0-2.1.9,1.4,1.4,0,0,0,.5,2,1.7,1.7,0,0,0-1.2,1.7c0,.4.1.8.1,1.2s-.6.7-.9.5a11.5,11.5,0,0,1-.4,5.5,77.4,77.4,0,0,1-8.3,20.4"/><path class="b" d="M28.5,82.1l-2.6-3.4a1.7,1.7,0,0,1-.6-1.1,1.5,1.5,0,0,1,.9-1.6,4.5,4.5,0,0,1,2-.4l-.9-3.3H32a.4.4,0,0,0,0-.5,6.9,6.9,0,0,1-.1-2c.1-.2.1-.5.3-.6h3.4a35.7,35.7,0,0,1,.4-4.6,2.2,2.2,0,0,1,.5-1.1,2.2,2.2,0,0,1,1.4-.6c2.8-.6,4.9-3.1,6.5-5.5a55.7,55.7,0,0,0,6.4-13.5"/><path class="b" d="M64,25.2a17.4,17.4,0,0,1,.3,10.1,46.6,46.6,0,0,1-4,9.5,3.7,3.7,0,0,0-.4,1.4,5.4,5.4,0,0,0,.5,1.1,2.6,2.6,0,0,1-.1,2.4,1.6,1.6,0,0,1-2.2.7c.4,1.2.6,2.7-.5,3.3s-2.1.3-2.4,1.2a3.4,3.4,0,0,0,0,1,4.1,4.1,0,0,1-.9,2.3l-3.4,5.6"/><path class="b" d="M39.1,85.3a34.2,34.2,0,0,0,17-20.6"/></svg>