<svg xmlns="http://www.w3.org/2000/svg" viewBox="0 0 100 100"><defs><style>.a{fill:#ff931e;}.b,.c{fill:none;stroke:#333;stroke-linecap:round;stroke-width:1.33px;}.b{stroke-miterlimit:10;}.c{stroke-linejoin:round;}</style></defs><path class="a" d="M75.5,71.1c.1-4-1.5-7.5-1.7-11.4C73.3,51,79,42.2,74,33.8a21.1,21.1,0,0,0-9.1-7.9c-4.4-1.6-8.6-.3-11.9,2.9a24.8,24.8,0,0,0-2.8,3.5H49a21.7,21.7,0,0,0-3.6-.1,22.7,22.7,0,0,0-7.7,2.2l-.8.5c-5.4-2.1-11.6-1.1-15.1,4a16.3,16.3,0,0,0-.3,17.5,54.6,54.6,0,0,0,5.3,6.4c2.2,2.6,3.9,5.5,5.9,8.1,4,5.2,7.2,10.2,12.9,13.6,2.1,1.3,5.3-.1,6.2-2.3s.5-5.7,4.7-4.8,7.5,2.4,11.4,2.9S75.3,75.4,75.5,71.1Z"/><path class="a" d="M66.2,72.3c.1-2.6.4-5.2.7-7.8a44.2,44.2,0,0,0-.3-15.8c-1.8-8.8-6.4-17.9-15.7-20.6C46,26.7,41,29.5,39.7,30.6a38.5,38.5,0,0,0-5.4,5.3c-2.9,4.1-3.3,9-2.7,13.9a30.3,30.3,0,0,0,5,13.6c2.9,3.9,6.7,6.5,10.3,9.7s3.7,8.7,8.1,11.1,9.2.1,10.7-4.5C66.4,77.4,66.1,74.8,66.2,72.3Z"/><path class="b" d="M39.7,30.6a38.5,38.5,0,0,0-5.4,5.3c-2.9,4.1-3.3,9-2.7,13.9"/><path class="b" d="M46.9,73.1c3.5,3.1,3.7,8.7,8.1,11.1s9.2.1,10.7-4.5c.7-2.3.4-4.9.5-7.4s.4-5.2.7-7.8a44.2,44.2,0,0,0-.3-15.8c-1.8-8.8-6.4-17.9-15.7-20.6"/><path class="b" d="M68.9,32.5a8,8,0,0,0-5.9-4"/><path class="c" d="M37.2,30.6a4.9,4.9,0,0,1-7.4-1.7,2.4,2.4,0,0,1-.2-2,2.3,2.3,0,0,1,1.2-1.2,3.6,3.6,0,0,1,2.2-.5c1.5.1,2.7,1.3,3.6,2.5-1.7-2.3-3.5-4.6-4.4-7.3s-.7-6,1.2-8.1a4.1,4.1,0,0,1,2.9-1.5,4,4,0,0,1,3,1.7,7.9,7.9,0,0,1,1.3,3.3,36.2,36.2,0,0,1,.8,8.7A33.1,33.1,0,0,1,47.3,17a10.4,10.4,0,0,1,2.4-1.7,3.3,3.3,0,0,1,2.9,0A3.4,3.4,0,0,1,54,19.4c-.4,1.5-4.1,6.5-5.1,7.6"/></svg>