<svg xmlns="http://www.w3.org/2000/svg" viewBox="0 0 100 100"><defs><style>.a{fill:#7dc265;}.b,.c{fill:none;stroke:#333;stroke-linecap:round;stroke-width:1.33px;}.b{stroke-miterlimit:10;}.c{stroke-linejoin:round;}</style></defs><path class="a" d="M69.3,79.8c1.4-3.8.9-7.7,1.8-11.5,2.2-8.7,10.4-15.4,8.1-25A19.9,19.9,0,0,0,72.8,33c-3.7-3-8.2-3-12.3-.9a44.4,44.4,0,0,0-3.8,2.6l-1.1-.4a20.6,20.6,0,0,0-3.5-1.2,22.1,22.1,0,0,0-8.1-.2l-.9.2c-4.6-3.6-10.9-4.6-15.8-.7a16.3,16.3,0,0,0-5.6,16.8c.7,2.8,2.1,5.2,3.2,7.8s2.1,6.4,3.3,9.6c2.2,6.2,3.8,12,8.2,17.1,1.7,1.8,5.2,1.4,6.7-.4s2.3-5.4,6.1-3.3,6.4,4.7,10.1,6.3S67.9,83.9,69.3,79.8Z"/><path class="a" d="M60,78.1c.9-2.5,2-4.9,3.1-7.3a45.7,45.7,0,0,0,4.5-15.3c.9-9.1-.8-19.3-8.9-24.7-4.4-2.8-10-1.7-11.6-1a36.6,36.6,0,0,0-6.8,3.5c-4,3-6,7.7-6.8,12.6s-1,9.9.7,14.6,4.5,8.3,7,12.5,1,9.5,4.4,13.2a7.5,7.5,0,0,0,11.7-1.1C58.7,83.1,59.2,80.4,60,78.1Z"/><path class="b" d="M47.1,29.8a36.6,36.6,0,0,0-6.8,3.5c-4,3-6,7.7-6.8,12.6"/><path class="b" d="M41.2,73c2.4,4.1,1,9.5,4.4,13.2a7.5,7.5,0,0,0,11.7-1.1c1.4-2,1.9-4.7,2.7-7s2-4.9,3.1-7.3a45.7,45.7,0,0,0,4.5-15.3c.9-9.1-.8-19.3-8.9-24.7"/><path class="b" d="M74.7,40.5a8.1,8.1,0,0,0-4.5-5.7"/><path class="c" d="M44.7,29.1a5.1,5.1,0,0,1-4.2-.4,5,5,0,0,1-2.4-3.5,2.3,2.3,0,0,1,.4-2,2.5,2.5,0,0,1,1.5-.8,5.9,5.9,0,0,1,2.3.1c1.4.6,2.1,2.2,2.7,3.6a27.3,27.3,0,0,1-2.1-8.4c0-2.9,1.1-6,3.6-7.5a4.3,4.3,0,0,1,3.3-.5,4,4,0,0,1,2.4,2.5,8.8,8.8,0,0,1,.3,3.6,42.7,42.7,0,0,1-1.9,8.6A42.5,42.5,0,0,1,58.5,19a10.8,10.8,0,0,1,2.9-.9,3.5,3.5,0,0,1,2.8.8,3.6,3.6,0,0,1,.1,4.5c-.9,1.3-5.9,5-7.3,5.8"/></svg>