<svg xmlns="http://www.w3.org/2000/svg" viewBox="0 0 100 100"><defs><style>.a{fill:#ffc275;}.b,.c{fill:none;stroke:#333;stroke-linecap:round;stroke-miterlimit:10;}.b{stroke-width:1.33px;}.c{stroke-width:0.67px;}</style></defs><path class="a" d="M67.8,77.2c.3-1.1.6-2.1.8-3.1a18.7,18.7,0,0,0,5.8-10.7c1.2-5.8,1.2-11.3-1.7-16.7A30.9,30.9,0,0,0,58.6,33.8a30.2,30.2,0,0,0-15.4-2.2c-5.3.7-9.6,3.3-13.4,6.7a24.5,24.5,0,0,0-8.1,10c-3.6,8.8-.8,19.1,4.3,26.8a32.6,32.6,0,0,0,14.2,12,24.2,24.2,0,0,0,11.9,2C58.6,88.3,65.8,83.7,67.8,77.2Z"/><path class="b" d="M47.6,39.9c28.3,12,21.2,36.4,18.7,40.5a18.4,18.4,0,0,1-11.9,8.2c-3,.7-7.8,1.1-10.7-.3"/><path class="b" d="M47.3,86.3a9.2,9.2,0,0,0,7.8-3.1"/><path class="c" d="M48.8,83a5.4,5.4,0,0,1-2.8.8"/><path class="b" d="M39.7,33a6.8,6.8,0,0,1-.5-2.3,16.1,16.1,0,0,1,.6-4.4,6.7,6.7,0,0,0,.4-2.4,1.7,1.7,0,0,0-1.3-1.8,2.5,2.5,0,0,0-2.2.9l-.4.5a2.1,2.1,0,0,0,0,.8c.3,1.7.6,6.4,3.4,8.7"/><path class="b" d="M39.9,32.3a7.8,7.8,0,0,1,1.4-2.7c2.3-3.2,4.7-6.4,7.1-9.5a42.7,42.7,0,0,1,6.8-7.3,24.9,24.9,0,0,1,8.3-4.5,14.1,14.1,0,0,1,9.7-.2c-3.1,2.3-5.1,5.8-7.3,9s-2.8,4.1-4.3,6.1A20.4,20.4,0,0,1,58,26.8a13.2,13.2,0,0,1-6.5,2.6,33.8,33.8,0,0,1-7.1.3"/><path class="b" d="M63,13.2A43.8,43.8,0,0,0,48.2,25.5"/></svg>