<svg xmlns="http://www.w3.org/2000/svg" viewBox="0 0 100 100"><defs><style>.a{fill:#d34472;}.b{fill:none;stroke:#333;stroke-linecap:round;stroke-miterlimit:10;stroke-width:1.33px;}</style></defs><path class="a" d="M59,60.2A11.4,11.4,0,0,0,48,56c-3.1-5.9-11.8-7.2-17.5-3.6a15,15,0,0,0-6.8,9.7c-.8,4.1-1.1,9.1.6,13a21.2,21.2,0,0,0,8.5,8.8l.5.3a1.9,1.9,0,0,1-.3,1.6c-.6.7-1.4,1-1.8,1.9a2.4,2.4,0,0,0,.1,2.3,3.7,3.7,0,0,1,.6,2.5,5,5,0,0,1-1.3,1.9c-.2.1,0,.4.2.3a2.5,2.5,0,0,0,2.3-1.8c.5-1.5-.4-2.9,0-4.3s2.6-1.1,3.7-1.9a2.3,2.3,0,0,0,.7-1,31.9,31.9,0,0,0,7.5.8c4.6.1,9,0,12.7-3a15.2,15.2,0,0,0,6-10.1C64.3,68.5,61.9,63.9,59,60.2Z"/><path class="b" d="M46.4,57.3a12.5,12.5,0,0,0,3.3-7.6,6.2,6.2,0,0,0-1.2-4.4c-.6-.8-1.5-1.3-2.2-2.1a4.7,4.7,0,0,1-.5-4.6,2.8,2.8,0,0,0,.4-1.2c.1-.5-.2-.9-.5-1.4s-2-2.4-2.1-4,1.1-3,2.3-4.2a3.8,3.8,0,0,0,.9-1.2c.4-.9-.1-1.9-.4-2.7s-1-4.5.1-6.3a5.3,5.3,0,0,1,5.7-2.3,2.8,2.8,0,0,1,2.3,1.9"/><path class="b" d="M49,57.1a18.3,18.3,0,0,1,3.8-7.3,4.7,4.7,0,0,1,1.5-1.3,3.9,3.9,0,0,1,2.1-.3,22.1,22.1,0,0,1,3.5.8,6.9,6.9,0,0,0,3.5.4A3.4,3.4,0,0,0,66,47.1a2.2,2.2,0,0,1,.2-1.1c.4-1,1.7-1.3,2.8-1.2s2.4.4,3.4-.1S74,42.5,74.1,41s.3-3,1.4-3.9,2.5-.8,3.7-1.3A6.8,6.8,0,0,0,81.5,34a9.8,9.8,0,0,0,2.6-4.9,4.9,4.9,0,0,0-2-4.9,6.7,6.7,0,0,0-2.4-.7,11.8,11.8,0,0,0-6.4,1.1A8.8,8.8,0,0,0,69,29.2"/><path class="b" d="M54.5,48.1c.9-1.2,1.9-2.3,2.9-3.5a32,32,0,0,1,2.5-2.7c1.7-1.7,3.9-3.2,4.3-5.5s-.2-2.6-.1-3.9,1.7-4.4,3.4-6.1,3.8-3.1,5.1-5.1a13.7,13.7,0,0,0,1.5-3.8,6.6,6.6,0,0,0-.2-4.6,6.3,6.3,0,0,0-2.8-2.8,9.2,9.2,0,0,0-2.8-1.4,7.4,7.4,0,0,0-6.5,1.7A10.8,10.8,0,0,0,58,20.3a9,9,0,0,1,.4,2.8c0,2.1-1.5,3.8-3,5.2s-3.2,2.7-4,4.6c-1.8,4.2,1.3,9.1.1,13.5"/><path class="b" d="M66.2,16.9c-4.1,9-8.1,18-12.1,27.1"/><path class="b" d="M78,28.3A79.1,79.1,0,0,0,65.3,40.8"/><path class="b" d="M50.8,20.2c0,3-.1,6.1-.3,9.1"/><path class="b" d="M36.6,56.4a7.8,7.8,0,0,0-3.4.5A8.3,8.3,0,0,0,31.7,58a6.6,6.6,0,0,0-1.9,4.8"/><path class="b" d="M31.7,54.5a6.4,6.4,0,0,0-3.8,4.2"/><path class="b" d="M49,83.5a6,6,0,0,0,5.4-1.7"/></svg>