<svg xmlns="http://www.w3.org/2000/svg" viewBox="0 0 100 100"><defs><style>.a{fill:#ff931e;}.b{fill:none;stroke:#333;stroke-linecap:round;stroke-linejoin:round;stroke-width:1.33px;}</style></defs><path class="a" d="M55.3,42.5c-2.7-3.4-6.1-5.6-9.5-5.7-5.6-.1-10.4,4.8-8.3,12,1.4,4.7,5,9.3,8,13.1s7.3,8.7,11,13A62.1,62.1,0,0,0,67.4,85.2c1.2.8,2.5,1.8,3.8,1.9s2.3-1.9,1.6-4v-.2a28.4,28.4,0,0,0-1-4.5c-.6-2.3-1.1-4.6-1.8-6.9A91.7,91.7,0,0,0,64,56.3,82.2,82.2,0,0,0,55.3,42.5Z"/><path class="b" d="M41.9,41.7a39,39,0,0,0-7.6-2.2A55.4,55.4,0,0,0,24.5,38a21.5,21.5,0,0,0-9.8,1.5,17.8,17.8,0,0,1,9.1-3.9,42.6,42.6,0,0,1,10.1-.3,11.1,11.1,0,0,0-3-2.2L14.3,23.3c1.6.4,3.3,0,5,.2A14.9,14.9,0,0,1,24,24.8,49.7,49.7,0,0,1,40.4,36.3c-4.9-8.5-10.3-16.8-16.1-24.9a111.7,111.7,0,0,1,18.2,23,48.1,48.1,0,0,1,2-10.7c1.2-3.4,3.4-6.7,6.6-8.4a116.6,116.6,0,0,0-4.7,12.4,32.4,32.4,0,0,0-1.2,13.1"/><path class="b" d="M46.3,51.9a17.3,17.3,0,0,0,5.8-2.8,9.4,9.4,0,0,0,3.5-5.3"/><path class="b" d="M46.5,63.2a1.4,1.4,0,0,0,.7.8,5.5,5.5,0,0,0,4,.3,11.8,11.8,0,0,0,3.7-1.9,9.7,9.7,0,0,0,2.8-2.5"/><path class="b" d="M66.9,63.9a17.8,17.8,0,0,1-1,5.1,6.7,6.7,0,0,1-2.4,3.5"/><path class="b" d="M67.9,74a10.6,10.6,0,0,1-4.4,3.7"/></svg>